<svg width="43" height="43" viewBox="0 0 43 43" fill="none" xmlns="http://www.w3.org/2000/svg">
<circle cx="21.5" cy="21.5" r="21.5" fill="#FFF0F4"/>
<path d="M29.3666 16.8417C28.941 16.4158 28.4356 16.078 27.8794 15.8476C27.3232 15.6171 26.727 15.4985 26.1249 15.4985C25.5229 15.4985 24.9267 15.6171 24.3705 15.8476C23.8143 16.078 23.3089 16.4158 22.8833 16.8417L21.9999 17.725L21.1166 16.8417C20.2569 15.9819 19.0908 15.4989 17.8749 15.4989C16.6591 15.4989 15.493 15.9819 14.6333 16.8417C13.7735 17.7014 13.2905 18.8675 13.2905 20.0833C13.2905 21.2992 13.7735 22.4653 14.6333 23.325L15.5166 24.2083L21.9999 30.6917L28.4833 24.2083L29.3666 23.325C29.7924 22.8994 30.1302 22.394 30.3607 21.8378C30.5912 21.2816 30.7098 20.6854 30.7098 20.0833C30.7098 19.4813 30.5912 18.8851 30.3607 18.3289C30.1302 17.7727 29.7924 17.2673 29.3666 16.8417V16.8417Z" stroke="#FF719B" stroke-width="2" stroke-linecap="round" stroke-linejoin="round"/>
</svg>
