<svg width="43" height="43" viewBox="0 0 43 43" fill="none" xmlns="http://www.w3.org/2000/svg">
<circle cx="21.5" cy="21.5" r="21.5" fill="#EEFDFE"/>
<path d="M17.8337 29.3334H15.3337C14.8916 29.3334 14.4677 29.1578 14.1551 28.8453C13.8426 28.5327 13.667 28.1088 13.667 27.6667V21.8334C13.667 21.3914 13.8426 20.9675 14.1551 20.6549C14.4677 20.3423 14.8916 20.1667 15.3337 20.1667H17.8337M23.667 18.5001V15.1667C23.667 14.5037 23.4036 13.8678 22.9348 13.399C22.4659 12.9301 21.83 12.6667 21.167 12.6667L17.8337 20.1667V29.3334H27.2337C27.6356 29.338 28.0256 29.1971 28.3319 28.9368C28.6382 28.6764 28.8401 28.3142 28.9003 27.9167L30.0503 20.4167C30.0866 20.1779 30.0705 19.934 30.0031 19.702C29.9357 19.4699 29.8187 19.2553 29.6602 19.073C29.5017 18.8907 29.3054 18.745 29.085 18.6461C28.8645 18.5472 28.6252 18.4973 28.3837 18.5001H23.667Z" stroke="#2EE1ED" stroke-width="2" stroke-linecap="round" stroke-linejoin="round"/>
</svg>
