<svg width="35" height="35" viewBox="0 0 35 35" fill="none" xmlns="http://www.w3.org/2000/svg">
<circle cx="17.5" cy="17.5" r="17.5" fill="#F3F7FF"/>
<path d="M22.1665 9.66667H13.8332C11.532 9.66667 9.6665 11.5321 9.6665 13.8333V22.1667C9.6665 24.4679 11.532 26.3333 13.8332 26.3333H22.1665C24.4677 26.3333 26.3332 24.4679 26.3332 22.1667V13.8333C26.3332 11.5321 24.4677 9.66667 22.1665 9.66667Z" stroke="#2E4C6D" stroke-width="1.5" stroke-linecap="round" stroke-linejoin="round"/>
<path d="M21.3333 17.475C21.4361 18.1685 21.3176 18.8768 20.9947 19.4992C20.6718 20.1215 20.1609 20.6262 19.5346 20.9414C18.9083 21.2566 18.1986 21.3663 17.5064 21.2549C16.8142 21.1436 16.1747 20.8167 15.679 20.321C15.1832 19.8252 14.8564 19.1857 14.745 18.4935C14.6336 17.8013 14.7433 17.0916 15.0585 16.4653C15.3737 15.839 15.8784 15.3281 16.5007 15.0052C17.1231 14.6823 17.8314 14.5638 18.5249 14.6667C19.2324 14.7716 19.8873 15.1012 20.393 15.6069C20.8987 16.1126 21.2283 16.7676 21.3333 17.475Z" stroke="#2E4C6D" stroke-width="1.5" stroke-linecap="round" stroke-linejoin="round"/>
<path d="M22.5835 13.4167H22.5935" stroke="#2E4C6D" stroke-width="1.5" stroke-linecap="round" stroke-linejoin="round"/>
</svg>
