<svg width="35" height="35" viewBox="0 0 35 35" fill="none" xmlns="http://www.w3.org/2000/svg">
<circle cx="17.5" cy="17.5" r="17.5" fill="#F3F7FF"/>
<path d="M26.1668 10.5C25.3688 11.0629 24.4853 11.4934 23.5502 11.775C23.0483 11.1979 22.3813 10.7889 21.6394 10.6033C20.8974 10.4176 20.1164 10.4643 19.4019 10.737C18.6874 11.0098 18.0739 11.4953 17.6443 12.1281C17.2148 12.7609 16.9899 13.5103 17.0002 14.275V15.1083C15.5357 15.1463 14.0846 14.8215 12.776 14.1629C11.4674 13.5042 10.3421 12.5322 9.50016 11.3333C9.50016 11.3333 6.16683 18.8333 13.6668 22.1667C11.9506 23.3316 9.90613 23.9158 7.8335 23.8333C15.3335 28 24.5002 23.8333 24.5002 14.25C24.4994 14.0179 24.4771 13.7863 24.4335 13.5583C25.284 12.7196 25.8842 11.6606 26.1668 10.5V10.5Z" stroke="#2E4C6D" stroke-width="1.5" stroke-linecap="round" stroke-linejoin="round"/>
</svg>
