<svg width="106" height="105" viewBox="0 0 106 105" fill="none" xmlns="http://www.w3.org/2000/svg">
<path d="M21.27 74.7503C21.27 76.0463 21.708 76.9823 22.956 76.9823C24.204 76.9823 24.642 76.0463 24.642 74.7503C24.642 73.4663 24.204 72.5303 22.956 72.5303C21.708 72.5303 21.27 73.4663 21.27 74.7503ZM23.634 74.7503C23.634 75.4463 23.562 76.0223 22.956 76.0223C22.35 76.0223 22.278 75.4463 22.278 74.7503C22.278 74.0783 22.35 73.4903 22.956 73.4903C23.562 73.4903 23.634 74.0783 23.634 74.7503Z" fill="#2E4C6D"/>
<path d="M15.306 57.8561H16.308C16.326 57.6161 16.446 57.3761 16.776 57.3761C17.052 57.3761 17.226 57.5381 17.226 57.8321C17.226 58.2281 16.89 58.3121 16.542 58.3121H16.35V59.1461H16.542C17.076 59.1461 17.31 59.3021 17.31 59.6921C17.31 59.9801 17.136 60.1841 16.818 60.1841C16.44 60.1841 16.254 59.9561 16.248 59.6141H15.252C15.282 60.6041 15.942 61.0361 16.854 61.0361C17.772 61.0361 18.3 60.5081 18.3 59.7701C18.3 59.1941 18 58.8581 17.562 58.7141V58.6901C17.862 58.5881 18.222 58.2821 18.222 57.7061C18.222 57.0461 17.724 56.5181 16.8 56.5181C15.906 56.5181 15.342 56.9921 15.306 57.8561Z" fill="#2E4C6D"/>
<path d="M17.5519 40.6143V43.2243H18.5419C18.5959 43.0203 18.7639 42.8643 19.0519 42.8643C19.4179 42.8643 19.6159 43.0743 19.6159 43.4703C19.6159 43.8483 19.4479 44.1303 19.0579 44.1303C18.7219 44.1303 18.5479 43.9263 18.5059 43.6983H17.5039C17.5399 44.4543 18.1099 45.0003 19.0939 45.0003C20.0659 45.0003 20.6059 44.4003 20.6059 43.4763C20.6059 42.7683 20.2399 42.0423 19.2859 42.0423C18.9379 42.0423 18.6379 42.1683 18.4819 42.3423V41.5143H20.3539V40.6143H17.5519Z" fill="#2E4C6D"/>
<path d="M28.9902 25.6483C28.5702 25.8463 28.3242 26.2183 28.3242 26.7163C28.3242 27.5923 29.0502 28.0843 29.9442 28.0843C30.8382 28.0843 31.5642 27.5923 31.5642 26.7163C31.5642 26.2183 31.3182 25.8523 30.8922 25.6483C31.2222 25.4743 31.4562 25.1563 31.4562 24.7063C31.4562 24.0823 30.9762 23.5303 29.9442 23.5303C28.9122 23.5303 28.4262 24.0823 28.4262 24.7063C28.4262 25.1683 28.6542 25.4683 28.9902 25.6483ZM29.9442 25.3723C29.6502 25.3723 29.4282 25.1863 29.4282 24.8683C29.4282 24.5323 29.6382 24.3463 29.9442 24.3463C30.2502 24.3463 30.4602 24.5323 30.4602 24.8623C30.4602 25.1803 30.2382 25.3723 29.9442 25.3723ZM29.9442 26.0923C30.3102 26.0923 30.5622 26.3083 30.5622 26.6683C30.5622 26.9923 30.3342 27.2443 29.9442 27.2443C29.5482 27.2443 29.3142 26.9983 29.3142 26.6683C29.3142 26.2963 29.5782 26.0923 29.9442 26.0923Z" fill="#2E4C6D"/>
<path d="M73.7561 28.0001H74.8241V23.6201H73.1621V24.5741H73.7561V28.0001Z" fill="#C4C4C4"/>
<path d="M75.862 24.8561H76.864C76.882 24.6161 77.002 24.3761 77.332 24.3761C77.608 24.3761 77.782 24.5381 77.782 24.8321C77.782 25.2281 77.446 25.3121 77.098 25.3121H76.906V26.1461H77.098C77.632 26.1461 77.866 26.3021 77.866 26.6921C77.866 26.9801 77.692 27.1841 77.374 27.1841C76.996 27.1841 76.81 26.9561 76.804 26.6141H75.808C75.838 27.6041 76.498 28.0361 77.41 28.0361C78.328 28.0361 78.856 27.5081 78.856 26.7701C78.856 26.1941 78.556 25.8581 78.118 25.7141V25.6901C78.418 25.5881 78.778 25.2821 78.778 24.7061C78.778 24.0461 78.28 23.5181 77.356 23.5181C76.462 23.5181 75.898 23.9921 75.862 24.8561Z" fill="#C4C4C4"/>
<path d="M83.7561 45.0003H84.8241V40.6203H83.1621V41.5743H83.7561V45.0003Z" fill="#C4C4C4"/>
<path d="M86.108 40.6143V43.2243H87.098C87.152 43.0203 87.32 42.8643 87.608 42.8643C87.974 42.8643 88.172 43.0743 88.172 43.4703C88.172 43.8483 88.004 44.1303 87.614 44.1303C87.278 44.1303 87.104 43.9263 87.062 43.6983H86.06C86.096 44.4543 86.666 45.0003 87.65 45.0003C88.622 45.0003 89.162 44.4003 89.162 43.4763C89.162 42.7683 88.796 42.0423 87.842 42.0423C87.494 42.0423 87.194 42.1683 87.038 42.3423V41.5143H88.91V40.6143H86.108Z" fill="#C4C4C4"/>
<path d="M85.7561 61.0003H86.8241V56.6203H85.1621V57.5743H85.7561V61.0003Z" fill="#C4C4C4"/>
<path d="M88.546 58.6483C88.126 58.8463 87.88 59.2183 87.88 59.7163C87.88 60.5923 88.606 61.0843 89.5 61.0843C90.394 61.0843 91.12 60.5923 91.12 59.7163C91.12 59.2183 90.874 58.8523 90.448 58.6483C90.778 58.4743 91.012 58.1563 91.012 57.7063C91.012 57.0823 90.532 56.5303 89.5 56.5303C88.468 56.5303 87.982 57.0823 87.982 57.7063C87.982 58.1683 88.21 58.4683 88.546 58.6483ZM89.5 58.3723C89.206 58.3723 88.984 58.1863 88.984 57.8683C88.984 57.5323 89.194 57.3463 89.5 57.3463C89.806 57.3463 90.016 57.5323 90.016 57.8623C90.016 58.1803 89.794 58.3723 89.5 58.3723ZM89.5 59.0923C89.866 59.0923 90.118 59.3083 90.118 59.6683C90.118 59.9923 89.89 60.2443 89.5 60.2443C89.104 60.2443 88.87 59.9983 88.87 59.6683C88.87 59.2963 89.134 59.0923 89.5 59.0923Z" fill="#C4C4C4"/>
<path d="M78.2337 76.9399H81.2457V76.1059H79.6257C80.3217 75.5719 81.1797 74.8039 81.1797 73.8439C81.1797 73.1059 80.7357 72.5239 79.7397 72.5239C78.9417 72.5239 78.2517 72.9799 78.2217 74.0419H79.2117C79.2117 73.6279 79.3917 73.3879 79.6977 73.3879C80.0097 73.3879 80.1537 73.5919 80.1537 73.9099C80.1537 74.6479 79.1637 75.4099 78.2337 76.1779V76.9399Z" fill="#C4C4C4"/>
<path d="M81.9974 74.7499C81.9974 76.0459 82.4354 76.9819 83.6834 76.9819C84.9314 76.9819 85.3694 76.0459 85.3694 74.7499C85.3694 73.4659 84.9314 72.5299 83.6834 72.5299C82.4354 72.5299 81.9974 73.4659 81.9974 74.7499ZM84.3614 74.7499C84.3614 75.4459 84.2894 76.0219 83.6834 76.0219C83.0774 76.0219 83.0054 75.4459 83.0054 74.7499C83.0054 74.0779 83.0774 73.4899 83.6834 73.4899C84.2894 73.4899 84.3614 74.0779 84.3614 74.7499Z" fill="#C4C4C4"/>
<path d="M49.7561 18.0003H50.8241V13.6203H49.1621V14.5743H49.7561V18.0003Z" fill="#2E4C6D"/>
<path d="M51.826 15.7503C51.826 17.0463 52.264 17.9823 53.512 17.9823C54.76 17.9823 55.198 17.0463 55.198 15.7503C55.198 14.4663 54.76 13.5303 53.512 13.5303C52.264 13.5303 51.826 14.4663 51.826 15.7503ZM54.19 15.7503C54.19 16.4463 54.118 17.0223 53.512 17.0223C52.906 17.0223 52.834 16.4463 52.834 15.7503C52.834 15.0783 52.906 14.4903 53.512 14.4903C54.118 14.4903 54.19 15.0783 54.19 15.7503Z" fill="#2E4C6D"/>
<path d="M86.9108 85.9108C88.961 87.961 92.3086 87.9761 94.1439 85.7314C99.5714 79.0934 103.308 71.2041 104.991 62.7422C107.017 52.5582 105.977 42.0022 102.004 32.4091C98.0301 22.816 91.301 14.6166 82.6674 8.84785C74.0339 3.07907 63.8835 4.74481e-07 53.5 0C43.1165 -4.74481e-07 32.9661 3.07907 24.3326 8.84784C15.699 14.6166 8.96993 22.816 4.99633 32.4091C1.02272 42.0022 -0.0169513 52.5582 2.00877 62.7422C3.69194 71.2041 7.42862 79.0933 12.8561 85.7314C14.6914 87.9761 18.0389 87.961 20.0892 85.9108V85.9108C22.1395 83.8605 22.1091 80.5539 20.3305 78.264C16.3419 73.1291 13.5848 67.1177 12.307 60.6938C10.6864 52.5466 11.5182 44.1018 14.6971 36.4273C17.8759 28.7528 23.2592 22.1933 30.1661 17.5783C37.0729 12.9633 45.1932 10.5 53.5 10.5C61.8068 10.5 69.9271 12.9633 76.834 17.5783C83.7408 22.1933 89.1241 28.7528 92.3029 36.4273C95.4818 44.1018 96.3136 52.5466 94.693 60.6938C93.4152 67.1177 90.6581 73.1291 86.6695 78.264C84.8909 80.5539 84.8605 83.8605 86.9108 85.9108V85.9108Z" fill="#2E4C6D"/>
<path d="M51.4947 5.97749C51.4235 2.68298 48.6858 0.0351156 45.4206 0.479463C37.1665 1.60274 29.2678 4.67889 22.3963 9.48815C13.8894 15.4421 7.33904 23.7849 3.57361 33.4616C-0.191816 43.1384 -1.0032 53.7144 1.24206 63.8522C3.05565 72.041 6.79775 79.6469 12.1218 86.0537C14.2278 88.5881 18.0352 88.4871 20.3145 86.1072V86.1072C22.5937 83.7273 22.4707 79.973 20.4506 77.3696C16.7868 72.6481 14.1959 67.1546 12.893 61.2719C11.1581 53.4383 11.785 45.2663 14.6946 37.7891C17.6041 30.3119 22.6656 23.8654 29.2389 19.2647C34.1753 15.8098 39.7978 13.5124 45.6892 12.509C48.9377 11.9558 51.5659 9.27199 51.4947 5.97749V5.97749Z" fill="url(#paint0_linear_447_117)"/>
<path d="M50.5654 39.1879C50.6225 38.4378 51.2478 37.8584 52 37.8584V37.8584C52.7522 37.8584 53.3775 38.4378 53.4346 39.1879L55.6961 68.87C55.8601 71.0219 54.1582 72.8584 52 72.8584V72.8584C49.8418 72.8584 48.1399 71.0219 48.3039 68.87L50.5654 39.1879Z" fill="url(#paint1_linear_447_117)"/>
<defs>
<linearGradient id="paint0_linear_447_117" x1="19.5" y1="28.5" x2="19.5" y2="87.5" gradientUnits="userSpaceOnUse">
<stop stop-color="#FFDFA9"/>
<stop offset="1" stop-color="#FFAA1C"/>
</linearGradient>
<linearGradient id="paint1_linear_447_117" x1="52" y1="37.8584" x2="52" y2="72.8584" gradientUnits="userSpaceOnUse">
<stop stop-color="#F0BB62"/>
<stop offset="1" stop-color="#F0BB62" stop-opacity="0"/>
</linearGradient>
</defs>
</svg>
