<svg width="105" height="105" viewBox="0 0 105 105" fill="none" xmlns="http://www.w3.org/2000/svg">
<path d="M20.27 74.7503C20.27 76.0463 20.708 76.9823 21.956 76.9823C23.204 76.9823 23.642 76.0463 23.642 74.7503C23.642 73.4663 23.204 72.5303 21.956 72.5303C20.708 72.5303 20.27 73.4663 20.27 74.7503ZM22.634 74.7503C22.634 75.4463 22.562 76.0223 21.956 76.0223C21.35 76.0223 21.278 75.4463 21.278 74.7503C21.278 74.0783 21.35 73.4903 21.956 73.4903C22.562 73.4903 22.634 74.0783 22.634 74.7503Z" fill="#2E4C6D"/>
<path d="M14.306 57.8561H15.308C15.326 57.6161 15.446 57.3761 15.776 57.3761C16.052 57.3761 16.226 57.5381 16.226 57.8321C16.226 58.2281 15.89 58.3121 15.542 58.3121H15.35V59.1461H15.542C16.076 59.1461 16.31 59.3021 16.31 59.6921C16.31 59.9801 16.136 60.1841 15.818 60.1841C15.44 60.1841 15.254 59.9561 15.248 59.6141H14.252C14.282 60.6041 14.942 61.0361 15.854 61.0361C16.772 61.0361 17.3 60.5081 17.3 59.7701C17.3 59.1941 17 58.8581 16.562 58.7141V58.6901C16.862 58.5881 17.222 58.2821 17.222 57.7061C17.222 57.0461 16.724 56.5181 15.8 56.5181C14.906 56.5181 14.342 56.9921 14.306 57.8561Z" fill="#2E4C6D"/>
<path d="M16.5519 40.6143V43.2243H17.5419C17.5959 43.0203 17.7639 42.8643 18.0519 42.8643C18.4179 42.8643 18.6159 43.0743 18.6159 43.4703C18.6159 43.8483 18.4479 44.1303 18.0579 44.1303C17.7219 44.1303 17.5479 43.9263 17.5059 43.6983H16.5039C16.5399 44.4543 17.1099 45.0003 18.0939 45.0003C19.0659 45.0003 19.6059 44.4003 19.6059 43.4763C19.6059 42.7683 19.2399 42.0423 18.2859 42.0423C17.9379 42.0423 17.6379 42.1683 17.4819 42.3423V41.5143H19.3539V40.6143H16.5519Z" fill="#2E4C6D"/>
<path d="M27.9902 25.6483C27.5702 25.8463 27.3242 26.2183 27.3242 26.7163C27.3242 27.5923 28.0502 28.0843 28.9442 28.0843C29.8382 28.0843 30.5642 27.5923 30.5642 26.7163C30.5642 26.2183 30.3182 25.8523 29.8922 25.6483C30.2222 25.4743 30.4562 25.1563 30.4562 24.7063C30.4562 24.0823 29.9762 23.5303 28.9442 23.5303C27.9122 23.5303 27.4262 24.0823 27.4262 24.7063C27.4262 25.1683 27.6542 25.4683 27.9902 25.6483ZM28.9442 25.3723C28.6502 25.3723 28.4282 25.1863 28.4282 24.8683C28.4282 24.5323 28.6382 24.3463 28.9442 24.3463C29.2502 24.3463 29.4602 24.5323 29.4602 24.8623C29.4602 25.1803 29.2382 25.3723 28.9442 25.3723ZM28.9442 26.0923C29.3102 26.0923 29.5622 26.3083 29.5622 26.6683C29.5622 26.9923 29.3342 27.2443 28.9442 27.2443C28.5482 27.2443 28.3142 26.9983 28.3142 26.6683C28.3142 26.2963 28.5782 26.0923 28.9442 26.0923Z" fill="#2E4C6D"/>
<path d="M72.7561 28.0001H73.8241V23.6201H72.1621V24.5741H72.7561V28.0001Z" fill="#2E4C6D"/>
<path d="M74.862 24.8561H75.864C75.882 24.6161 76.002 24.3761 76.332 24.3761C76.608 24.3761 76.782 24.5381 76.782 24.8321C76.782 25.2281 76.446 25.3121 76.098 25.3121H75.906V26.1461H76.098C76.632 26.1461 76.866 26.3021 76.866 26.6921C76.866 26.9801 76.692 27.1841 76.374 27.1841C75.996 27.1841 75.81 26.9561 75.804 26.6141H74.808C74.838 27.6041 75.498 28.0361 76.41 28.0361C77.328 28.0361 77.856 27.5081 77.856 26.7701C77.856 26.1941 77.556 25.8581 77.118 25.7141V25.6901C77.418 25.5881 77.778 25.2821 77.778 24.7061C77.778 24.0461 77.28 23.5181 76.356 23.5181C75.462 23.5181 74.898 23.9921 74.862 24.8561Z" fill="#2E4C6D"/>
<path d="M82.7561 45.0003H83.8241V40.6203H82.1621V41.5743H82.7561V45.0003Z" fill="#2E4C6D"/>
<path d="M85.108 40.6143V43.2243H86.098C86.152 43.0203 86.32 42.8643 86.608 42.8643C86.974 42.8643 87.172 43.0743 87.172 43.4703C87.172 43.8483 87.004 44.1303 86.614 44.1303C86.278 44.1303 86.104 43.9263 86.062 43.6983H85.06C85.096 44.4543 85.666 45.0003 86.65 45.0003C87.622 45.0003 88.162 44.4003 88.162 43.4763C88.162 42.7683 87.796 42.0423 86.842 42.0423C86.494 42.0423 86.194 42.1683 86.038 42.3423V41.5143H87.91V40.6143H85.108Z" fill="#2E4C6D"/>
<path d="M84.7561 61.0003H85.8241V56.6203H84.1621V57.5743H84.7561V61.0003Z" fill="#2E4C6D"/>
<path d="M87.546 58.6483C87.126 58.8463 86.88 59.2183 86.88 59.7163C86.88 60.5923 87.606 61.0843 88.5 61.0843C89.394 61.0843 90.12 60.5923 90.12 59.7163C90.12 59.2183 89.874 58.8523 89.448 58.6483C89.778 58.4743 90.012 58.1563 90.012 57.7063C90.012 57.0823 89.532 56.5303 88.5 56.5303C87.468 56.5303 86.982 57.0823 86.982 57.7063C86.982 58.1683 87.21 58.4683 87.546 58.6483ZM88.5 58.3723C88.206 58.3723 87.984 58.1863 87.984 57.8683C87.984 57.5323 88.194 57.3463 88.5 57.3463C88.806 57.3463 89.016 57.5323 89.016 57.8623C89.016 58.1803 88.794 58.3723 88.5 58.3723ZM88.5 59.0923C88.866 59.0923 89.118 59.3083 89.118 59.6683C89.118 59.9923 88.89 60.2443 88.5 60.2443C88.104 60.2443 87.87 59.9983 87.87 59.6683C87.87 59.2963 88.134 59.0923 88.5 59.0923Z" fill="#2E4C6D"/>
<path d="M77.2337 76.9399H80.2457V76.1059H78.6257C79.3217 75.5719 80.1797 74.8039 80.1797 73.8439C80.1797 73.1059 79.7357 72.5239 78.7397 72.5239C77.9417 72.5239 77.2517 72.9799 77.2217 74.0419H78.2117C78.2117 73.6279 78.3917 73.3879 78.6977 73.3879C79.0097 73.3879 79.1537 73.5919 79.1537 73.9099C79.1537 74.6479 78.1637 75.4099 77.2337 76.1779V76.9399Z" fill="#2E4C6D"/>
<path d="M80.9974 74.7499C80.9974 76.0459 81.4354 76.9819 82.6834 76.9819C83.9314 76.9819 84.3694 76.0459 84.3694 74.7499C84.3694 73.4659 83.9314 72.5299 82.6834 72.5299C81.4354 72.5299 80.9974 73.4659 80.9974 74.7499ZM83.3614 74.7499C83.3614 75.4459 83.2894 76.0219 82.6834 76.0219C82.0774 76.0219 82.0054 75.4459 82.0054 74.7499C82.0054 74.0779 82.0774 73.4899 82.6834 73.4899C83.2894 73.4899 83.3614 74.0779 83.3614 74.7499Z" fill="#2E4C6D"/>
<path d="M48.7561 18.0003H49.8241V13.6203H48.1621V14.5743H48.7561V18.0003Z" fill="#2E4C6D"/>
<path d="M50.826 15.7503C50.826 17.0463 51.264 17.9823 52.512 17.9823C53.76 17.9823 54.198 17.0463 54.198 15.7503C54.198 14.4663 53.76 13.5303 52.512 13.5303C51.264 13.5303 50.826 14.4663 50.826 15.7503ZM53.19 15.7503C53.19 16.4463 53.118 17.0223 52.512 17.0223C51.906 17.0223 51.834 16.4463 51.834 15.7503C51.834 15.0783 51.906 14.4903 52.512 14.4903C53.118 14.4903 53.19 15.0783 53.19 15.7503Z" fill="#2E4C6D"/>
<path d="M85.9108 85.9108C87.961 87.961 91.3086 87.9761 93.1439 85.7314C98.5714 79.0934 102.308 71.2041 103.991 62.7422C106.017 52.5582 104.977 42.0022 101.004 32.4091C97.0301 22.816 90.301 14.6166 81.6674 8.84785C73.0339 3.07907 62.8835 4.74481e-07 52.5 0C42.1165 -4.74481e-07 31.9661 3.07907 23.3326 8.84784C14.699 14.6166 7.96993 22.816 3.99633 32.4091C0.0227244 42.0022 -1.01695 52.5582 1.00877 62.7422C2.69194 71.2041 6.42862 79.0933 11.8561 85.7314C13.6914 87.9761 17.0389 87.961 19.0892 85.9108V85.9108C21.1395 83.8605 21.1091 80.5539 19.3305 78.264C15.3419 73.1291 12.5848 67.1177 11.307 60.6938C9.68644 52.5466 10.5182 44.1018 13.6971 36.4273C16.8759 28.7528 22.2592 22.1933 29.1661 17.5783C36.0729 12.9633 44.1932 10.5 52.5 10.5C60.8068 10.5 68.9271 12.9633 75.834 17.5783C82.7408 22.1933 88.1241 28.7528 91.3029 36.4273C94.4818 44.1018 95.3136 52.5466 93.693 60.6938C92.4152 67.1177 89.6581 73.1291 85.6695 78.264C83.8909 80.5539 83.8605 83.8605 85.9108 85.9108V85.9108Z" fill="url(#paint0_linear_447_140)"/>
<path d="M74.4329 68.4036C74.9751 68.925 75.0243 69.776 74.5456 70.3563V70.3563C74.067 70.9366 73.2222 71.0503 72.6072 70.6171L48.2701 53.4752C46.5056 52.2324 46.1718 49.7509 47.545 48.086V48.086C48.9183 46.421 51.4179 46.2767 52.9737 47.7724L74.4329 68.4036Z" fill="url(#paint1_linear_447_140)"/>
<defs>
<linearGradient id="paint0_linear_447_140" x1="19.5" y1="28.5" x2="19.5" y2="87.5" gradientUnits="userSpaceOnUse">
<stop stop-color="#FFDFA9"/>
<stop offset="1" stop-color="#FFAA1C"/>
</linearGradient>
<linearGradient id="paint1_linear_447_140" x1="74.5456" y1="70.3563" x2="47.545" y2="48.086" gradientUnits="userSpaceOnUse">
<stop stop-color="#F0BB62"/>
<stop offset="1" stop-color="#F0BB62" stop-opacity="0"/>
</linearGradient>
</defs>
</svg>
