<svg width="106" height="105" viewBox="0 0 106 105" fill="none" xmlns="http://www.w3.org/2000/svg">
<path d="M21.27 74.7503C21.27 76.0463 21.708 76.9823 22.956 76.9823C24.204 76.9823 24.642 76.0463 24.642 74.7503C24.642 73.4663 24.204 72.5303 22.956 72.5303C21.708 72.5303 21.27 73.4663 21.27 74.7503ZM23.634 74.7503C23.634 75.4463 23.562 76.0223 22.956 76.0223C22.35 76.0223 22.278 75.4463 22.278 74.7503C22.278 74.0783 22.35 73.4903 22.956 73.4903C23.562 73.4903 23.634 74.0783 23.634 74.7503Z" fill="#2E4C6D"/>
<path d="M15.306 57.8561H16.308C16.326 57.6161 16.446 57.3761 16.776 57.3761C17.052 57.3761 17.226 57.5381 17.226 57.8321C17.226 58.2281 16.89 58.3121 16.542 58.3121H16.35V59.1461H16.542C17.076 59.1461 17.31 59.3021 17.31 59.6921C17.31 59.9801 17.136 60.1841 16.818 60.1841C16.44 60.1841 16.254 59.9561 16.248 59.6141H15.252C15.282 60.6041 15.942 61.0361 16.854 61.0361C17.772 61.0361 18.3 60.5081 18.3 59.7701C18.3 59.1941 18 58.8581 17.562 58.7141V58.6901C17.862 58.5881 18.222 58.2821 18.222 57.7061C18.222 57.0461 17.724 56.5181 16.8 56.5181C15.906 56.5181 15.342 56.9921 15.306 57.8561Z" fill="#2E4C6D"/>
<path d="M17.5519 40.6143V43.2243H18.5419C18.5959 43.0203 18.7639 42.8643 19.0519 42.8643C19.4179 42.8643 19.6159 43.0743 19.6159 43.4703C19.6159 43.8483 19.4479 44.1303 19.0579 44.1303C18.7219 44.1303 18.5479 43.9263 18.5059 43.6983H17.5039C17.5399 44.4543 18.1099 45.0003 19.0939 45.0003C20.0659 45.0003 20.6059 44.4003 20.6059 43.4763C20.6059 42.7683 20.2399 42.0423 19.2859 42.0423C18.9379 42.0423 18.6379 42.1683 18.4819 42.3423V41.5143H20.3539V40.6143H17.5519Z" fill="#2E4C6D"/>
<path d="M28.99 25.6483C28.57 25.8463 28.324 26.2183 28.324 26.7163C28.324 27.5923 29.05 28.0843 29.944 28.0843C30.838 28.0843 31.564 27.5923 31.564 26.7163C31.564 26.2183 31.318 25.8523 30.892 25.6483C31.222 25.4743 31.456 25.1563 31.456 24.7063C31.456 24.0823 30.976 23.5303 29.944 23.5303C28.912 23.5303 28.426 24.0823 28.426 24.7063C28.426 25.1683 28.654 25.4683 28.99 25.6483ZM29.944 25.3723C29.65 25.3723 29.428 25.1863 29.428 24.8683C29.428 24.5323 29.638 24.3463 29.944 24.3463C30.25 24.3463 30.46 24.5323 30.46 24.8623C30.46 25.1803 30.238 25.3723 29.944 25.3723ZM29.944 26.0923C30.31 26.0923 30.562 26.3083 30.562 26.6683C30.562 26.9923 30.334 27.2443 29.944 27.2443C29.548 27.2443 29.314 26.9983 29.314 26.6683C29.314 26.2963 29.578 26.0923 29.944 26.0923Z" fill="#C4C4C4"/>
<path d="M73.7561 28.0001H74.8241V23.6201H73.1621V24.5741H73.7561V28.0001Z" fill="#C4C4C4"/>
<path d="M75.862 24.8561H76.864C76.882 24.6161 77.002 24.3761 77.332 24.3761C77.608 24.3761 77.782 24.5381 77.782 24.8321C77.782 25.2281 77.446 25.3121 77.098 25.3121H76.906V26.1461H77.098C77.632 26.1461 77.866 26.3021 77.866 26.6921C77.866 26.9801 77.692 27.1841 77.374 27.1841C76.996 27.1841 76.81 26.9561 76.804 26.6141H75.808C75.838 27.6041 76.498 28.0361 77.41 28.0361C78.328 28.0361 78.856 27.5081 78.856 26.7701C78.856 26.1941 78.556 25.8581 78.118 25.7141V25.6901C78.418 25.5881 78.778 25.2821 78.778 24.7061C78.778 24.0461 78.28 23.5181 77.356 23.5181C76.462 23.5181 75.898 23.9921 75.862 24.8561Z" fill="#C4C4C4"/>
<path d="M83.7561 45.0003H84.8241V40.6203H83.1621V41.5743H83.7561V45.0003Z" fill="#C4C4C4"/>
<path d="M86.108 40.6143V43.2243H87.098C87.152 43.0203 87.32 42.8643 87.608 42.8643C87.974 42.8643 88.172 43.0743 88.172 43.4703C88.172 43.8483 88.004 44.1303 87.614 44.1303C87.278 44.1303 87.104 43.9263 87.062 43.6983H86.06C86.096 44.4543 86.666 45.0003 87.65 45.0003C88.622 45.0003 89.162 44.4003 89.162 43.4763C89.162 42.7683 88.796 42.0423 87.842 42.0423C87.494 42.0423 87.194 42.1683 87.038 42.3423V41.5143H88.91V40.6143H86.108Z" fill="#C4C4C4"/>
<path d="M85.7561 61.0003H86.8241V56.6203H85.1621V57.5743H85.7561V61.0003Z" fill="#C4C4C4"/>
<path d="M88.546 58.6483C88.126 58.8463 87.88 59.2183 87.88 59.7163C87.88 60.5923 88.606 61.0843 89.5 61.0843C90.394 61.0843 91.12 60.5923 91.12 59.7163C91.12 59.2183 90.874 58.8523 90.448 58.6483C90.778 58.4743 91.012 58.1563 91.012 57.7063C91.012 57.0823 90.532 56.5303 89.5 56.5303C88.468 56.5303 87.982 57.0823 87.982 57.7063C87.982 58.1683 88.21 58.4683 88.546 58.6483ZM89.5 58.3723C89.206 58.3723 88.984 58.1863 88.984 57.8683C88.984 57.5323 89.194 57.3463 89.5 57.3463C89.806 57.3463 90.016 57.5323 90.016 57.8623C90.016 58.1803 89.794 58.3723 89.5 58.3723ZM89.5 59.0923C89.866 59.0923 90.118 59.3083 90.118 59.6683C90.118 59.9923 89.89 60.2443 89.5 60.2443C89.104 60.2443 88.87 59.9983 88.87 59.6683C88.87 59.2963 89.134 59.0923 89.5 59.0923Z" fill="#C4C4C4"/>
<path d="M78.2339 76.9399H81.2459V76.1059H79.6259C80.3219 75.5719 81.1799 74.8039 81.1799 73.8439C81.1799 73.1059 80.7359 72.5239 79.7399 72.5239C78.9419 72.5239 78.2519 72.9799 78.2219 74.0419H79.2119C79.2119 73.6279 79.3919 73.3879 79.6979 73.3879C80.0099 73.3879 80.1539 73.5919 80.1539 73.9099C80.1539 74.6479 79.1639 75.4099 78.2339 76.1779V76.9399Z" fill="#C4C4C4"/>
<path d="M81.9977 74.7499C81.9977 76.0459 82.4357 76.9819 83.6837 76.9819C84.9317 76.9819 85.3697 76.0459 85.3697 74.7499C85.3697 73.4659 84.9317 72.5299 83.6837 72.5299C82.4357 72.5299 81.9977 73.4659 81.9977 74.7499ZM84.3617 74.7499C84.3617 75.4459 84.2897 76.0219 83.6837 76.0219C83.0777 76.0219 83.0057 75.4459 83.0057 74.7499C83.0057 74.0779 83.0777 73.4899 83.6837 73.4899C84.2897 73.4899 84.3617 74.0779 84.3617 74.7499Z" fill="#C4C4C4"/>
<path d="M49.7561 18.0003H50.8241V13.6203H49.1621V14.5743H49.7561V18.0003Z" fill="#C4C4C4"/>
<path d="M51.826 15.7503C51.826 17.0463 52.264 17.9823 53.512 17.9823C54.76 17.9823 55.198 17.0463 55.198 15.7503C55.198 14.4663 54.76 13.5303 53.512 13.5303C52.264 13.5303 51.826 14.4663 51.826 15.7503ZM54.19 15.7503C54.19 16.4463 54.118 17.0223 53.512 17.0223C52.906 17.0223 52.834 16.4463 52.834 15.7503C52.834 15.0783 52.906 14.4903 53.512 14.4903C54.118 14.4903 54.19 15.0783 54.19 15.7503Z" fill="#C4C4C4"/>
<path d="M86.9108 85.9108C88.961 87.961 92.3086 87.9761 94.1439 85.7314C99.5714 79.0934 103.308 71.2041 104.991 62.7422C107.017 52.5582 105.977 42.0022 102.004 32.4091C98.0301 22.816 91.301 14.6166 82.6674 8.84785C74.0339 3.07907 63.8835 4.74481e-07 53.5 0C43.1165 -4.74481e-07 32.9661 3.07907 24.3326 8.84784C15.699 14.6166 8.96993 22.816 4.99633 32.4091C1.02272 42.0022 -0.0169513 52.5582 2.00877 62.7422C3.69194 71.2041 7.42862 79.0933 12.8561 85.7314C14.6914 87.9761 18.0389 87.961 20.0892 85.9108V85.9108C22.1395 83.8605 22.1091 80.5539 20.3305 78.264C16.3419 73.1291 13.5848 67.1177 12.307 60.6938C10.6864 52.5466 11.5182 44.1018 14.6971 36.4273C17.8759 28.7528 23.2592 22.1933 30.1661 17.5783C37.0729 12.9633 45.1932 10.5 53.5 10.5C61.8068 10.5 69.9271 12.9633 76.834 17.5783C83.7408 22.1933 89.1241 28.7528 92.3029 36.4273C95.4818 44.1018 96.3136 52.5466 94.693 60.6938C93.4152 67.1177 90.6581 73.1291 86.6695 78.264C84.8909 80.5539 84.8605 83.8605 86.9108 85.9108V85.9108Z" fill="#2E4C6D"/>
<path d="M10.0574 33.4245C7.05114 32.0734 3.48333 33.4086 2.48191 36.5486C-0.1699 44.8637 -0.716346 53.7415 0.937076 62.375C2.5905 71.0084 6.37838 79.0561 11.9148 85.8031C14.0055 88.351 17.8142 88.2734 20.1085 85.9072V85.9072C22.4028 83.5409 22.3029 79.7852 20.2986 77.1688C16.4784 72.1821 13.8513 66.353 12.6595 60.13C11.4677 53.907 11.7552 47.5197 13.4626 41.4744C14.3584 38.3025 13.0636 34.7756 10.0574 33.4245V33.4245Z" fill="url(#paint0_linear_444_98)"/>
<path d="M30.3571 45.9669C29.8231 45.4371 29.7873 44.5854 30.275 44.0127V44.0127C30.7626 43.44 31.6092 43.3396 32.2173 43.7823L56.2822 61.3043C58.0269 62.5746 58.3218 65.061 56.9226 66.7042V66.7042C55.5233 68.3473 53.0217 68.4524 51.4896 66.9324L30.3571 45.9669Z" fill="url(#paint1_linear_444_98)"/>
<defs>
<linearGradient id="paint0_linear_444_98" x1="19.5" y1="28.5" x2="19.5" y2="87.5" gradientUnits="userSpaceOnUse">
<stop stop-color="#FFDFA9"/>
<stop offset="1" stop-color="#FFAA1C"/>
</linearGradient>
<linearGradient id="paint1_linear_444_98" x1="30.275" y1="44.0127" x2="56.9226" y2="66.7042" gradientUnits="userSpaceOnUse">
<stop stop-color="#F0BB62"/>
<stop offset="1" stop-color="#F0BB62" stop-opacity="0"/>
</linearGradient>
</defs>
</svg>
