<svg width="15" height="15" viewBox="0 0 15 15" fill="none" xmlns="http://www.w3.org/2000/svg">
<path d="M0.000415802 11.2169V13.4669C-0.000432014 13.6758 0.0423546 13.8826 0.126034 14.0739C0.209713 14.2653 0.332441 14.4371 0.486359 14.5783C0.640275 14.7195 0.821986 14.827 1.01985 14.894C1.21772 14.9609 1.42739 14.9857 1.63542 14.9669C3.94329 14.7162 6.16017 13.9275 8.10792 12.6644C9.92005 11.5129 11.4564 9.97656 12.6079 8.16443C13.8754 6.20783 14.6642 3.98017 14.9104 1.66193C14.9292 1.45453 14.9045 1.2455 14.838 1.04815C14.7716 0.850794 14.6647 0.669445 14.5243 0.515644C14.3839 0.361843 14.2131 0.23896 14.0226 0.15482C13.8321 0.0706791 13.6262 0.0271243 13.4179 0.0269282H11.1679C10.8039 0.0233458 10.4511 0.152237 10.1751 0.389578C9.89912 0.626918 9.71886 0.956513 9.66792 1.31693C9.57295 2.03698 9.39683 2.74397 9.14292 3.42443C9.04201 3.69287 9.02017 3.98461 9.07999 4.26509C9.1398 4.54556 9.27877 4.80301 9.48042 5.00693L10.4329 5.95943C9.36525 7.83709 7.81058 9.39176 5.93292 10.4594L4.98042 9.50693C4.7765 9.30528 4.51905 9.16631 4.23858 9.1065C3.9581 9.04668 3.66636 9.06852 3.39792 9.16943C2.71746 9.42334 2.01047 9.59946 1.29042 9.69443C0.926091 9.74582 0.593365 9.92933 0.355516 10.21C0.117668 10.4908 -0.00870991 10.8491 0.000415802 11.2169Z" fill="white"/>
</svg>
