<svg width="113" height="18" viewBox="0 0 113 18" fill="none" xmlns="http://www.w3.org/2000/svg">
<path d="M8.34687 2.10511C8.77957 1.23846 10.0162 1.23846 10.4489 2.10511L12.0273 5.26638C12.1993 5.61088 12.5292 5.84922 12.9103 5.90429L16.4194 6.4114C17.3868 6.55119 17.7703 7.74229 17.0663 8.42025L14.546 10.8471C14.2651 11.1176 14.1368 11.5099 14.2034 11.8941L14.8003 15.3347C14.9665 16.2926 13.9635 17.0262 13.1009 16.5777L9.93981 14.9342C9.60012 14.7576 9.19568 14.7576 8.85599 14.9342L5.69485 16.5777C4.83225 17.0262 3.82931 16.2926 3.99549 15.3347L4.59236 11.8941C4.65901 11.5099 4.53065 11.1176 4.24975 10.8471L1.72952 8.42025C1.02548 7.74229 1.409 6.55119 2.37635 6.4114L5.88553 5.90429C6.26663 5.84922 6.59654 5.61088 6.76854 5.26638L8.34687 2.10511Z" fill="#F1884D"/>
<path d="M31.8417 2.10511C32.2744 1.23846 33.5111 1.23846 33.9438 2.10511L35.5221 5.26638C35.6941 5.61088 36.024 5.84922 36.4051 5.90429L39.9143 6.4114C40.8817 6.55119 41.2652 7.74229 40.5611 8.42025L38.0409 10.8471C37.76 11.1176 37.6317 11.5099 37.6983 11.8941L38.2952 15.3347C38.4614 16.2926 37.4584 17.0262 36.5958 16.5777L33.4347 14.9342C33.095 14.7576 32.6905 14.7576 32.3509 14.9342L29.1897 16.5777C28.3271 17.0262 27.3242 16.2926 27.4904 15.3347L28.0872 11.8941C28.1539 11.5099 28.0255 11.1176 27.7446 10.8471L25.2244 8.42025C24.5204 7.74229 24.9039 6.55119 25.8712 6.4114L29.3804 5.90429C29.7615 5.84922 30.0914 5.61088 30.2634 5.26638L31.8417 2.10511Z" fill="#F1884D"/>
<path d="M55.3364 2.10511C55.7691 1.23846 57.0057 1.23846 57.4384 2.10511L59.0168 5.26638C59.1888 5.61088 59.5187 5.84922 59.8998 5.90429L63.4089 6.4114C64.3763 6.55119 64.7598 7.74229 64.0558 8.42025L61.5355 10.8471C61.2546 11.1176 61.1263 11.5099 61.1929 11.8941L61.7898 15.3347C61.956 16.2926 60.953 17.0262 60.0904 16.5777L56.9293 14.9342C56.5896 14.7576 56.1852 14.7576 55.8455 14.9342L52.6844 16.5777C51.8218 17.0262 50.8188 16.2926 50.985 15.3347L51.5819 11.8941C51.6485 11.5099 51.5202 11.1176 51.2393 10.8471L48.719 8.42025C48.015 7.74229 48.3985 6.55119 49.3659 6.4114L52.875 5.90429C53.2561 5.84922 53.586 5.61088 53.758 5.26638L55.3364 2.10511Z" fill="#F1884D"/>
<path d="M78.8312 2.10511C79.2639 1.23846 80.5006 1.23846 80.9333 2.10511L82.5116 5.26638C82.6836 5.61088 83.0135 5.84922 83.3946 5.90429L86.9038 6.4114C87.8712 6.55119 88.2547 7.74229 87.5507 8.42025L85.0304 10.8471C84.7495 11.1176 84.6212 11.5099 84.6878 11.8941L85.2847 15.3347C85.4509 16.2926 84.4479 17.0262 83.5853 16.5777L80.4242 14.9342C80.0845 14.7576 79.6801 14.7576 79.3404 14.9342L76.1792 16.5777C75.3166 17.0262 74.3137 16.2926 74.4799 15.3347L75.0767 11.8941C75.1434 11.5099 75.015 11.1176 74.7341 10.8471L72.2139 8.42025C71.5099 7.74229 71.8934 6.55119 72.8607 6.4114L76.3699 5.90429C76.751 5.84922 77.0809 5.61088 77.2529 5.26638L78.8312 2.10511Z" fill="#F1884D"/>
<path d="M102.326 2.10511C102.759 1.23846 103.995 1.23846 104.428 2.10511L106.006 5.26638C106.178 5.61088 106.508 5.84922 106.889 5.90429L110.398 6.4114C111.366 6.55119 111.749 7.74229 111.045 8.42025L108.525 10.8471C108.244 11.1176 108.116 11.5099 108.182 11.8941L108.779 15.3347C108.945 16.2926 107.943 17.0262 107.08 16.5777L103.919 14.9342C103.579 14.7576 103.175 14.7576 102.835 14.9342L99.6739 16.5777C98.8113 17.0262 97.8083 16.2926 97.9745 15.3347L98.5714 11.8941C98.638 11.5099 98.5097 11.1176 98.2288 10.8471L95.7085 8.42025C95.0045 7.74229 95.388 6.55119 96.3554 6.4114L99.8645 5.90429C100.246 5.84922 100.576 5.61088 100.748 5.26638L102.326 2.10511Z" fill="#E5E5E5"/>
</svg>
