<svg width="59" height="52" viewBox="0 0 59 52" fill="none" xmlns="http://www.w3.org/2000/svg">
<path d="M15.115 45.634C6.27588 49.3876 2.14892 44.07 1.19034 40.942C-4.7428 57.4093 12.9499 51.9148 22.3844 47.0715C28.1359 49.6446 36.0106 47.6009 38.8821 45.558L34.7955 38.2929L41.4551 32.5414L45.6931 39.8065C49.1743 35.6436 50.5365 30.3471 49.931 24.2169C59.4664 13.1679 60.3703 3.85993 54.7702 0.832904C50.29 -1.58872 43.6203 1.84191 40.8455 3.85993C47.8078 1.28689 52.8025 3.10315 52.0458 10.8223C51.4403 16.9976 42.4095 26.4119 37.9697 30.3471C34.0345 33.8788 23.9542 41.8804 15.115 45.634Z" fill="#FFAA1C"/>
<path d="M24.2 6.50717L12.3943 40.1089C9.06875 37.3081 6.29081 29.2097 8.90889 20.6589C11.527 12.1081 17.2377 8.47479 24.2 6.50717Z" fill="#2E4C6D"/>
<path d="M25.4109 21.3408L15.8755 40.1089L29.9473 29.4376L25.4109 21.3408Z" fill="#2E4C6D"/>
<path d="M36.3085 23.913L25.7136 6.20517C36.7625 5.14603 42.514 10.7451 45.2384 13.7719L36.3085 23.913Z" fill="#2E4C6D"/>
</svg>
