<svg width="149" height="24" viewBox="0 0 149 24" fill="none" xmlns="http://www.w3.org/2000/svg">
<path d="M6.97617 21.0619C2.89656 22.7943 0.99181 20.34 0.549386 18.8963C-2.18898 26.4966 5.97686 23.9607 10.3312 21.7253C12.9858 22.9129 16.6203 21.9697 17.9456 21.0268L16.0595 17.6737L19.1331 15.0191L21.0891 18.3722C22.6958 16.4509 23.3245 14.0064 23.0451 11.177C27.446 6.0775 27.8632 1.78151 25.2785 0.384417C23.2108 -0.733254 20.1324 0.850113 18.8517 1.78151C22.0651 0.593948 24.3704 1.43222 24.0211 4.9949C23.7417 7.84504 19.5736 12.1901 17.5245 14.0064C15.7082 15.6363 11.0558 19.3294 6.97617 21.0619Z" fill="white"/>
<path d="M11.1694 3.00425L5.72062 18.5127C4.18575 17.22 2.90362 13.4824 4.11197 9.53583C5.32031 5.5893 7.95602 3.91238 11.1694 3.00425Z" fill="white"/>
<path d="M11.7283 9.85055L7.32732 18.5127L13.822 13.5875L11.7283 9.85055Z" fill="white"/>
<path d="M16.7579 11.0377L11.868 2.86486C16.9675 2.37603 19.622 4.96023 20.8794 6.35722L16.7579 11.0377Z" fill="white"/>
<path d="M37.5045 9.74349H40.2809L36.8473 0.287734H33.8161L30.3691 9.74349H33.1321L33.6418 8.20106H36.9949L37.5045 9.74349ZM36.3377 6.1892H34.3124L35.3183 3.13117L36.3377 6.1892Z" fill="white"/>
<path d="M50.969 0.193848C48.072 0.193848 46.1808 2.17889 46.1808 4.99549C46.1808 7.82552 48.0854 9.81055 50.9825 9.81055C53.4503 9.81055 54.9123 8.28154 55.4756 6.90006V4.3517H50.5667V6.24285H53.2089C52.82 7.06101 52.1493 7.49021 51.2373 7.49021C49.6815 7.49021 48.8499 6.6184 48.8499 4.99549C48.8499 3.54695 49.6546 2.6215 50.9825 2.6215C51.7067 2.6215 52.2432 2.90316 52.5383 3.39942H55.3683C54.9928 1.42779 53.3565 0.193848 50.969 0.193848Z" fill="white"/>
<path d="M68.1482 0.287734V5.63929L64.6475 0.287734H62.0187V9.74349H64.6475V4.459L68.1482 9.74349H70.777V0.287734H68.1482Z" fill="white"/>
<path d="M82.9601 4.45796V2.40586H84.0063C84.7976 2.40586 85.1195 2.80823 85.1195 3.43862C85.1195 4.05559 84.7976 4.45796 84.0063 4.45796H82.9601ZM87.802 3.43862C87.802 1.61453 86.6083 0.286696 84.2611 0.286696H80.3313V9.74245H82.9601V6.5503H84.2611C86.662 6.5503 87.802 5.08834 87.802 3.43862Z" fill="white"/>
<path d="M93.861 3.46544C93.861 4.10924 93.4988 4.45796 92.788 4.45796H91.487V2.48633H92.788C93.4988 2.48633 93.861 2.87529 93.861 3.46544ZM88.8581 0.286696V9.74245H91.487V6.25522H91.7686L93.6464 9.74245H96.5837L94.4511 6.05404C95.8594 5.62484 96.53 4.55185 96.53 3.3179C96.53 1.62794 95.3497 0.286696 93.0026 0.286696H88.8581Z" fill="white"/>
<path d="M107.101 4.98104C107.101 2.13761 104.955 0.13916 102.259 0.13916C99.5764 0.13916 97.4036 2.13761 97.4036 4.98104C97.4036 7.82448 99.5764 9.83634 102.259 9.83634C104.941 9.83634 107.101 7.82448 107.101 4.98104ZM100.086 4.98104C100.086 3.49226 100.891 2.5534 102.259 2.5534C103.614 2.5534 104.432 3.49226 104.432 4.98104C104.432 6.443 103.614 7.39528 102.259 7.39528C100.891 7.39528 100.086 6.443 100.086 4.98104Z" fill="white"/>
<path d="M112.548 7.11362L110.402 0.286696H107.585L110.858 9.74245H114.224L117.483 0.286696H114.68L112.548 7.11362Z" fill="white"/>
<path d="M118.303 9.74245H120.931V0.286696H118.303V9.74245Z" fill="white"/>
<path d="M126.171 0.286696H122.428V9.74245H126.171C129.188 9.74245 131.106 7.744 131.106 5.00787C131.106 2.2315 129.188 0.286696 126.171 0.286696ZM125.057 7.4221V2.56681H125.969C127.485 2.56681 128.437 3.43862 128.437 5.00787C128.437 6.56371 127.485 7.4221 125.969 7.4221H125.057Z" fill="white"/>
<path d="M138.34 0.286696H132.291V9.74245H138.34V7.6367H134.92V5.93333H137.938V3.93487H134.92V2.39245H138.34V0.286696Z" fill="white"/>
<path d="M144.642 3.46544C144.642 4.10924 144.28 4.45796 143.569 4.45796H142.268V2.48633H143.569C144.28 2.48633 144.642 2.87529 144.642 3.46544ZM139.639 0.286696V9.74245H142.268V6.25522H142.55L144.428 9.74245H147.365L145.232 6.05404C146.641 5.62484 147.311 4.55185 147.311 3.3179C147.311 1.62794 146.131 0.286696 143.784 0.286696H139.639Z" fill="white"/>
<path d="M32.2696 20.4677V18.9431H33.0751C33.6642 18.9431 33.9154 19.2377 33.9154 19.7054C33.9154 20.1732 33.6642 20.4677 33.0751 20.4677H32.2696ZM35.4226 19.7054C35.4226 18.588 34.6777 17.7478 33.1878 17.7478H30.7883V23.8286H32.2696V21.6457H33.1878C34.7383 21.6457 35.4226 20.7102 35.4226 19.7054Z" fill="white"/>
<path d="M35.8646 18.9345H37.4757V23.8286H38.957V18.9345H40.5681V17.7478H35.8646V18.9345Z" fill="white"/>
<path d="M47.2964 23.8286H48.8642L46.664 17.7478H44.9489L42.7487 23.8286H44.2992L44.6631 22.7545H46.9325L47.2964 23.8286ZM46.5514 21.6111H45.0529L45.7978 19.3849L46.5514 21.6111Z" fill="white"/>
<path d="M52.375 17.6785C50.556 17.6785 49.2826 18.9605 49.2826 20.7795C49.2826 22.5986 50.5646 23.8719 52.3837 23.8719C53.9862 23.8719 54.9997 22.8238 55.3115 21.7757V20.3984H52.0892V21.4898H53.9689C53.7437 22.1741 53.2326 22.5639 52.4963 22.5639C51.4309 22.5639 50.7899 21.9056 50.7899 20.7795C50.7899 19.7227 51.4222 19.0471 52.375 19.0471C52.9294 19.0471 53.3452 19.2636 53.5704 19.6708H55.2076C54.8871 18.4234 53.8303 17.6785 52.375 17.6785Z" fill="white"/>
<path d="M60.5497 22.0182C60.5497 19.9826 57.5439 20.459 57.5439 19.4022C57.5439 19.0211 57.8125 18.8392 58.1676 18.8479C58.5661 18.8565 58.8433 19.0904 58.8692 19.4802H60.4718C60.4111 18.3195 59.5189 17.6611 58.1936 17.6611C56.9203 17.6611 55.9761 18.3021 55.9761 19.4542C55.9588 21.6111 58.9992 21.0047 58.9992 22.1308C58.9992 22.486 58.722 22.7025 58.2889 22.7025C57.8731 22.7025 57.5786 22.4773 57.5353 22.0096H55.9588C56.0021 23.2396 57.0242 23.8892 58.3322 23.8892C59.7528 23.8892 60.5497 23.0404 60.5497 22.0182Z" fill="white"/>
<path d="M65.6105 23.8286H67.1783L64.9781 17.7478H63.263L61.0628 23.8286H62.6133L62.9772 22.7545H65.2466L65.6105 23.8286ZM64.8655 21.6111H63.367L64.1119 19.3849L64.8655 21.6111Z" fill="white"/>
<path d="M72.5248 17.6785C70.7057 17.6785 69.4324 18.9605 69.4324 20.7795C69.4324 22.5986 70.7144 23.8719 72.5334 23.8719C74.1359 23.8719 75.1494 22.8238 75.4613 21.7757V20.3984H72.2389V21.4898H74.1186C73.8934 22.1741 73.3823 22.5639 72.646 22.5639C71.5806 22.5639 70.9396 21.9056 70.9396 20.7795C70.9396 19.7227 71.5719 19.0471 72.5248 19.0471C73.0792 19.0471 73.4949 19.2636 73.7202 19.6708H75.3573C75.0368 18.4234 73.98 17.6785 72.5248 17.6785Z" fill="white"/>
<path d="M76.2817 17.7478V23.8286H79.7033V22.6852H77.763V17.7478H76.2817Z" fill="white"/>
<path d="M86.3954 20.7709C86.3954 18.9431 85.0181 17.6611 83.2857 17.6611C81.5619 17.6611 80.1586 18.9431 80.1586 20.7709C80.1586 22.5986 81.5619 23.8892 83.2857 23.8892C85.0094 23.8892 86.3954 22.5986 86.3954 20.7709ZM81.6745 20.7709C81.6745 19.6881 82.2982 19.0038 83.2857 19.0038C84.2558 19.0038 84.8882 19.6881 84.8882 20.7709C84.8882 21.8363 84.2558 22.5379 83.2857 22.5379C82.2982 22.5379 81.6745 21.8363 81.6745 20.7709Z" fill="white"/>
<path d="M90.5717 21.9749C90.5717 22.408 90.2858 22.6332 89.7921 22.6332H88.7007V21.2906H89.7748C90.2685 21.2906 90.5717 21.5418 90.5717 21.9749ZM90.4244 19.5755C90.4244 19.9913 90.1559 20.2078 89.6708 20.2078H88.7007V18.9345H89.6708C90.1559 18.9345 90.4244 19.1597 90.4244 19.5755ZM92.0703 22.1741C92.0703 21.4812 91.6112 20.8575 90.9009 20.7102C91.4899 20.537 91.9317 20.0606 91.9317 19.3243C91.9317 18.3628 91.1954 17.7478 89.9567 17.7478H87.2194V23.8286H90.052C91.334 23.8286 92.0703 23.1789 92.0703 22.1741Z" fill="white"/>
<path d="M97.0786 23.8286H98.6464L96.4462 17.7478H94.7311L92.5309 23.8286H94.0814L94.4453 22.7545H96.7147L97.0786 23.8286ZM96.3336 21.6111H94.8351L95.58 19.3849L96.3336 21.6111Z" fill="white"/>
<path d="M99.316 17.7478V23.8286H102.738V22.6852H100.797V17.7478H99.316Z" fill="white"/>
<path d="M109.238 17.7478V21.5158L106.761 17.7478H105.28V23.8286H106.761V20.0779L109.238 23.8286H110.72V17.7478H109.238Z" fill="white"/>
<path d="M115.518 17.7478H111.793V23.8286H115.518V22.6419H113.275V21.3079H115.258V20.1645H113.275V18.9345H115.518V17.7478Z" fill="white"/>
<path d="M116.151 18.9345H117.762V23.8286H119.243V18.9345H120.854V17.7478H116.151V18.9345Z" fill="white"/>
<path d="M122.819 23.8286H124.612L125.617 19.8267L126.587 23.8286H128.38L129.965 17.7478H128.371L127.488 22.1741L126.448 17.7478H124.82L123.737 22.1741L122.862 17.7478H121.277L122.819 23.8286Z" fill="white"/>
<path d="M136.694 20.7709C136.694 18.9431 135.316 17.6611 133.584 17.6611C131.86 17.6611 130.457 18.9431 130.457 20.7709C130.457 22.5986 131.86 23.8892 133.584 23.8892C135.308 23.8892 136.694 22.5986 136.694 20.7709ZM131.973 20.7709C131.973 19.6881 132.596 19.0038 133.584 19.0038C134.554 19.0038 135.186 19.6881 135.186 20.7709C135.186 21.8363 134.554 22.5379 133.584 22.5379C132.596 22.5379 131.973 21.8363 131.973 20.7709Z" fill="white"/>
<path d="M140.731 19.7227C140.731 20.1992 140.471 20.485 139.917 20.485H138.999V18.9778H139.917C140.471 18.9778 140.731 19.2723 140.731 19.7227ZM137.518 17.7478V23.8286H138.999V21.5331H139.354L140.619 23.8286H142.291L140.887 21.4205C141.823 21.1433 142.239 20.4244 142.239 19.6621C142.239 18.6053 141.494 17.7478 140.004 17.7478H137.518Z" fill="white"/>
<path d="M146.694 23.8286H148.504L146.062 20.7275L148.418 17.7478H146.677L144.65 20.4157V17.7478H143.168V23.8286H144.65V21.1433L146.694 23.8286Z" fill="white"/>
<rect x="30.2295" y="12.4917" width="117.498" height="2.51483" fill="white"/>
</svg>
