<svg width="271" height="98" viewBox="0 0 271 98" fill="none" xmlns="http://www.w3.org/2000/svg">
<path d="M3.1 55H11.65V40.8H22.35V34.15H11.65V26.75H25.95V19.9H3.1V55ZM32.9438 55H41.4938V18H32.9438V55ZM48.4898 41C48.4898 49.8 53.9398 55.4 60.7398 55.4C64.8898 55.4 67.8398 53.5 69.3898 51.05V55H77.9398V27.1H69.3898V31.05C67.8898 28.6 64.9398 26.7 60.7898 26.7C53.9398 26.7 48.4898 32.2 48.4898 41ZM69.3898 41.05C69.3898 45.5 66.5398 47.95 63.2898 47.95C60.0898 47.95 57.1898 45.45 57.1898 41C57.1898 36.55 60.0898 34.15 63.2898 34.15C66.5398 34.15 69.3898 36.6 69.3898 41.05ZM109.275 46.9C109.125 36.5 94.0254 39.65 94.0254 35.2C94.0254 33.85 95.1254 33.05 97.1254 33.05C99.5254 33.05 100.975 34.3 101.225 36.2H109.125C108.575 30.7 104.575 26.7 97.3754 26.7C90.0754 26.7 86.0254 30.6 86.0254 35.35C86.0254 45.6 101.225 42.35 101.225 46.85C101.225 48.1 100.075 49.1 97.8754 49.1C95.5254 49.1 93.7754 47.8 93.5754 45.85H85.1254C85.5254 51.25 90.5254 55.4 97.9754 55.4C104.975 55.4 109.275 51.75 109.275 46.9ZM117.006 55H125.556V39.85C125.556 36.05 127.656 33.95 130.906 33.95C134.156 33.95 136.256 36.05 136.256 39.85V55H144.756V38.7C144.756 31.2 140.506 26.8 134.156 26.8C130.306 26.8 127.256 28.45 125.556 30.85V18H117.006V55ZM180.498 41.05C180.498 32.2 174.198 26.7 165.998 26.7C157.848 26.7 151.498 32.2 151.498 41.05C151.498 49.9 157.698 55.4 165.898 55.4C174.098 55.4 180.498 49.9 180.498 41.05ZM160.198 41.05C160.198 36.3 162.898 34.1 165.998 34.1C168.998 34.1 171.798 36.3 171.798 41.05C171.798 45.75 168.948 48 165.898 48C162.798 48 160.198 45.75 160.198 41.05ZM225.984 55H234.484V38.7C234.484 31.2 230.034 26.8 223.134 26.8C219.084 26.8 215.584 29.05 213.734 32C211.834 28.65 208.434 26.8 204.234 26.8C200.584 26.8 197.734 28.35 196.084 30.6V27.1H187.534V55H196.084V39.85C196.084 36.2 198.184 34.2 201.434 34.2C204.684 34.2 206.784 36.2 206.784 39.85V55H215.284V39.85C215.284 36.2 217.384 34.2 220.634 34.2C223.884 34.2 225.984 36.2 225.984 39.85V55ZM255.263 33.55C258.113 33.55 260.513 35.3 260.513 38.35H249.813C250.313 35.25 252.463 33.55 255.263 33.55ZM268.613 45.75H259.513C258.813 47.25 257.463 48.45 255.063 48.45C252.313 48.45 250.063 46.75 249.763 43.1H269.113C269.213 42.25 269.263 41.4 269.263 40.6C269.263 32.1 263.513 26.7 255.363 26.7C247.063 26.7 241.263 32.2 241.263 41.05C241.263 49.9 247.163 55.4 255.363 55.4C262.313 55.4 267.263 51.2 268.613 45.75Z" fill="#2E4C6D"/>
<path d="M105.324 67H267L247.676 98H86L105.324 67Z" fill="#F1884D"/>
<path d="M115.05 87H116.646V77.27H115.05V87ZM124.915 87H126.497V82.45C126.497 80.294 125.139 79.16 123.333 79.16C122.409 79.16 121.555 79.538 121.037 80.168V79.286H119.441V87H121.037V82.688C121.037 81.274 121.807 80.546 122.983 80.546C124.145 80.546 124.915 81.274 124.915 82.688V87ZM129.485 84.858C129.485 86.426 130.339 87 131.711 87H132.971V85.67H131.991C131.319 85.67 131.095 85.432 131.095 84.858V80.588H132.971V79.286H131.095V77.368H129.485V79.286H128.575V80.588H129.485V84.858ZM138.39 80.504C139.58 80.504 140.518 81.26 140.546 82.45H136.276C136.444 81.232 137.312 80.504 138.39 80.504ZM142.002 84.704H140.28C139.986 85.306 139.44 85.782 138.46 85.782C137.284 85.782 136.374 85.012 136.262 83.738H142.156C142.198 83.472 142.212 83.22 142.212 82.954C142.212 80.686 140.658 79.16 138.46 79.16C136.178 79.16 134.61 80.714 134.61 83.136C134.61 85.558 136.248 87.126 138.46 87.126C140.35 87.126 141.568 86.048 142.002 84.704ZM146.079 82.94C146.079 81.302 146.807 80.812 147.983 80.812H148.389V79.16C147.297 79.16 146.527 79.636 146.079 80.406V79.286H144.483V87H146.079V82.94ZM156.03 87H157.612V82.45C157.612 80.294 156.254 79.16 154.448 79.16C153.524 79.16 152.67 79.538 152.152 80.168V79.286H150.556V87H152.152V82.688C152.152 81.274 152.922 80.546 154.098 80.546C155.26 80.546 156.03 81.274 156.03 82.688V87ZM163.596 80.504C164.786 80.504 165.724 81.26 165.752 82.45H161.482C161.65 81.232 162.518 80.504 163.596 80.504ZM167.208 84.704H165.486C165.192 85.306 164.646 85.782 163.666 85.782C162.49 85.782 161.58 85.012 161.468 83.738H167.362C167.404 83.472 167.418 83.22 167.418 82.954C167.418 80.686 165.864 79.16 163.666 79.16C161.384 79.16 159.816 80.714 159.816 83.136C159.816 85.558 161.454 87.126 163.666 87.126C165.556 87.126 166.774 86.048 167.208 84.704ZM169.94 84.858C169.94 86.426 170.794 87 172.166 87H173.426V85.67H172.446C171.774 85.67 171.55 85.432 171.55 84.858V80.588H173.426V79.286H171.55V77.368H169.94V79.286H169.03V80.588H169.94V84.858ZM179.934 87H181.53V82.744H184.75V81.442H181.53V78.572H185.66V77.27H179.934V87ZM187.839 87H189.435V79.286H187.839V87ZM188.651 78.264C189.211 78.264 189.659 77.816 189.659 77.242C189.659 76.668 189.211 76.22 188.651 76.22C188.077 76.22 187.629 76.668 187.629 77.242C187.629 77.816 188.077 78.264 188.651 78.264ZM193.826 80.434V76.64H192.23V87H193.826V85.88C194.33 86.552 195.24 87.126 196.514 87.126C198.544 87.126 200.14 85.488 200.14 83.108C200.14 80.728 198.558 79.16 196.514 79.16C195.296 79.16 194.33 79.734 193.826 80.434ZM198.516 83.108C198.516 84.774 197.368 85.74 196.164 85.74C194.974 85.74 193.826 84.802 193.826 83.136C193.826 81.484 194.974 80.546 196.164 80.546C197.368 80.546 198.516 81.442 198.516 83.108ZM205.667 80.504C206.857 80.504 207.795 81.26 207.823 82.45H203.553C203.721 81.232 204.589 80.504 205.667 80.504ZM209.279 84.704H207.557C207.263 85.306 206.717 85.782 205.737 85.782C204.561 85.782 203.651 85.012 203.539 83.738H209.433C209.475 83.472 209.489 83.22 209.489 82.954C209.489 80.686 207.935 79.16 205.737 79.16C203.455 79.16 201.887 80.714 201.887 83.136C201.887 85.558 203.525 87.126 205.737 87.126C207.627 87.126 208.845 86.048 209.279 84.704ZM213.355 82.94C213.355 81.302 214.083 80.812 215.259 80.812H215.665V79.16C214.573 79.16 213.803 79.636 213.355 80.406V79.286H211.759V87H213.355V82.94Z" fill="white"/>
</svg>
