<svg width="498" height="305" viewBox="0 0 498 305" fill="none" xmlns="http://www.w3.org/2000/svg">
<path d="M497.759 248.879C497.759 182.872 471.538 119.569 424.864 72.8951C378.19 26.2212 314.886 4.98338e-06 248.879 0C182.873 -4.98338e-06 119.569 26.2211 72.8951 72.8951C26.2212 119.569 9.96677e-06 182.872 0 248.879L91.8423 248.879C91.8423 207.231 108.387 167.288 137.837 137.837C167.288 108.387 207.231 91.8423 248.879 91.8423C290.528 91.8423 330.471 108.387 359.921 137.837C389.372 167.288 405.917 207.231 405.917 248.879H497.759Z" fill="url(#paint0_linear_488_243)"/>
<g filter="url(#filter0_i_488_243)">
<path d="M397.425 248.88C397.425 209.483 381.775 171.7 353.917 143.842C326.06 115.984 288.276 100.334 248.88 100.334C209.483 100.334 171.7 115.984 143.842 143.842C115.984 171.7 100.334 209.483 100.334 248.88L163.841 248.88C163.841 226.326 172.8 204.696 188.748 188.748C204.696 172.8 226.326 163.841 248.88 163.841C271.433 163.841 293.063 172.8 309.011 188.748C324.959 204.696 333.919 226.326 333.919 248.88H397.425Z" fill="#2E4C6D"/>
</g>
<path fill-rule="evenodd" clip-rule="evenodd" d="M244.891 32.6146C246.22 32.589 247.549 32.5762 248.879 32.5762C250.209 32.5762 251.539 32.589 252.867 32.6146L252.332 60.4007C251.182 60.3785 250.031 60.3674 248.879 60.3674C247.727 60.3674 246.576 60.3785 245.426 60.4007L244.891 32.6146ZM271.963 33.8662C274.606 34.1625 277.243 34.5096 279.871 34.9072L275.714 62.3858C273.438 62.0415 271.155 61.741 268.867 61.4844L271.963 33.8662ZM217.887 34.9072C220.516 34.5096 223.152 34.1625 225.795 33.8662L228.892 61.4844C226.603 61.741 224.32 62.0415 222.045 62.3858L217.887 34.9072ZM298.64 38.6406C301.22 39.279 303.789 39.9673 306.344 40.705L298.636 67.4058C296.423 66.7671 294.199 66.1712 291.965 65.6184L298.64 38.6406ZM191.414 40.705C193.97 39.9673 196.538 39.279 199.118 38.6406L205.793 65.6184C203.559 66.1712 201.335 66.7671 199.122 67.4058L191.414 40.705ZM324.465 46.8562C325.702 47.3411 326.936 47.838 328.164 48.347C329.393 48.856 330.617 49.3766 331.834 49.9087L320.707 75.3749C319.652 74.9142 318.593 74.4635 317.529 74.0227C316.465 73.582 315.397 73.1517 314.326 72.732L324.465 46.8562ZM169.594 48.347C170.823 47.838 172.056 47.3411 173.293 46.8563L183.432 72.732C182.361 73.1518 181.293 73.582 180.229 74.0228C179.165 74.4635 178.106 74.9142 177.051 75.375L165.924 49.9087C167.142 49.3766 168.365 48.856 169.594 48.347ZM348.997 58.3726C351.326 59.6579 353.629 60.9875 355.905 62.3606L341.548 86.1566C339.578 84.9677 337.584 83.8164 335.568 82.7035L348.997 58.3726ZM141.853 62.3606C144.129 60.9875 146.432 59.6579 148.761 58.3726L162.191 82.7035C160.174 83.8164 158.18 84.9677 156.21 86.1566L141.853 62.3606ZM371.816 72.9924C373.956 74.5696 376.066 76.1884 378.144 77.8479L360.805 99.5664C359.005 98.1296 357.178 96.7279 355.326 95.3623L371.816 72.9924ZM119.614 77.8479C121.693 76.1884 123.802 74.5696 125.942 72.9924L142.432 95.3623C140.58 96.7279 138.753 98.1296 136.953 99.5664L119.614 77.8479ZM392.532 90.4656C393.49 91.387 394.439 92.318 395.379 93.2585C396.32 94.199 397.251 95.1481 398.172 96.1057L378.146 115.375C377.348 114.546 376.542 113.724 375.728 112.91C374.913 112.095 374.092 111.289 373.262 110.492L392.532 90.4656ZM102.379 93.2585C103.32 92.318 104.269 91.387 105.226 90.4656L124.496 110.492C123.667 111.289 122.845 112.095 122.03 112.91C121.216 113.724 120.41 114.546 119.612 115.375L99.5862 96.1057C100.508 95.1481 101.439 94.199 102.379 93.2585ZM410.79 110.493C412.449 112.572 414.068 114.682 415.645 116.821L393.275 133.312C391.91 131.459 390.508 129.633 389.071 127.833L410.79 110.493ZM82.113 116.821C83.6902 114.682 85.309 112.572 86.9685 110.493L108.687 127.833C107.25 129.633 105.849 131.459 104.483 133.312L82.113 116.821ZM426.277 132.733C427.65 135.009 428.98 137.312 430.265 139.64L405.934 153.07C404.821 151.054 403.67 149.06 402.481 147.089L426.277 132.733ZM67.4932 139.64C68.7785 137.312 70.1081 135.009 71.4812 132.733L95.2772 147.089C94.0883 149.06 92.937 151.054 91.8241 153.07L67.4932 139.64ZM438.729 156.803C439.261 158.021 439.782 159.244 440.291 160.473C440.8 161.702 441.297 162.935 441.781 164.173L415.906 174.312C415.486 173.24 415.056 172.173 414.615 171.109C414.174 170.044 413.723 168.985 413.263 167.931L438.729 156.803ZM57.4676 160.473C57.9766 159.244 58.4972 158.021 59.0293 156.803L84.4955 167.931C84.0348 168.985 83.5841 170.045 83.1433 171.109C82.7026 172.173 82.2723 173.24 81.8526 174.312L55.9768 164.173C56.4617 162.935 56.9586 161.702 57.4676 160.473ZM447.933 182.294C448.67 184.849 449.359 187.418 449.997 189.998L423.019 196.673C422.466 194.439 421.871 192.215 421.232 190.002L447.933 182.294ZM47.7612 189.998C48.3996 187.418 49.0879 184.849 49.8256 182.294L76.5264 190.002C75.8877 192.215 75.2918 194.439 74.739 196.673L47.7612 189.998ZM453.73 208.767C454.128 211.395 454.475 214.031 454.771 216.675L427.153 219.771C426.897 217.482 426.596 215.2 426.252 212.924L453.73 208.767ZM42.9868 216.675C43.2831 214.031 43.6302 211.395 44.0278 208.767L71.5064 212.924C71.1621 215.2 70.8616 217.482 70.605 219.771L42.9868 216.675ZM441.555 252.789H428.27V239.759C428.27 238.607 428.259 237.456 428.237 236.305L441.301 236.054V226.728H441.555V236.049L442.777 236.025V226.728H443.031V236.02L456.023 235.77C456.049 237.099 456.061 238.428 456.061 239.759V252.789H442.777V239.759H441.555V252.789ZM54.9816 252.789H41.6968L41.6968 239.759C41.6968 238.428 41.7096 237.099 41.7352 235.77L54.7271 236.02V226.728H54.9816V236.025L56.2032 236.049V226.728H56.4577L56.4577 236.054L69.5213 236.305C69.4991 237.456 69.488 238.607 69.488 239.759V252.789H56.2032L56.2032 239.759H54.9816L54.9816 252.789Z" fill="#DBDEE7"/>
<rect x="244.97" y="24.7578" width="7.8182" height="37.788" fill="#F1884D"/>
<rect x="462.577" y="241.061" width="7.8182" height="37.788" transform="rotate(90 462.577 241.061)" fill="#F1884D"/>
<rect x="72.97" y="241.061" width="7.8182" height="37.788" transform="rotate(90 72.97 241.061)" fill="#F1884D"/>
<rect x="95.6548" y="92.0181" width="7.56705" height="37.788" transform="rotate(-46.0976 95.6548 92.0181)" fill="#F1884D"/>
<path d="M391.564 71.1605L228.626 230.248C226.941 231.893 227.034 234.629 228.827 236.155L250.985 255.025C252.721 256.503 255.339 256.233 256.738 254.433L396 75.1209C396.908 73.952 396.82 72.2938 395.794 71.2271C394.647 70.0344 392.748 70.0046 391.564 71.1605Z" fill="#2E4C6D" fill-opacity="0.08"/>
<path d="M429.518 59.4553L244.37 220.591C242.594 222.136 242.53 224.874 244.232 226.5L267.354 248.595C269.003 250.17 271.632 250.051 273.131 248.333L434.04 63.9845C435.088 62.7842 435.096 60.997 434.059 59.7875C432.9 58.4352 430.861 58.2861 429.518 59.4553Z" fill="#F1884D"/>
<g filter="url(#filter1_d_488_243)">
<circle cx="244.97" cy="248.879" r="52.1213" fill="#F1884D"/>
</g>
<path d="M242 269.9H245.049V266.053C251.382 265.49 254.853 261.081 254.853 256.531C254.853 249.917 249.74 248.65 245.049 247.524V237.392C247.301 237.955 248.614 239.69 248.802 241.567H254.525C254.102 236.266 250.444 233.311 245.049 232.842V229.042H242V232.889C236.183 233.405 232.149 237.017 232.149 242.27C232.149 248.885 237.309 250.198 242 251.371V261.691C239.373 261.222 238.059 259.486 237.872 257.141H232.149C232.149 262.441 236.277 265.584 242 266.1V269.9ZM249.458 256.812C249.458 259.252 247.864 261.222 245.049 261.691V252.168C247.582 252.966 249.458 254.138 249.458 256.812ZM237.59 241.989C237.59 239.127 239.42 237.579 242 237.251V246.727C239.467 245.929 237.59 244.71 237.59 241.989Z" fill="white"/>
<defs>
<filter id="filter0_i_488_243" x="100.334" y="100.334" width="297.092" height="152.546" filterUnits="userSpaceOnUse" color-interpolation-filters="sRGB">
<feFlood flood-opacity="0" result="BackgroundImageFix"/>
<feBlend mode="normal" in="SourceGraphic" in2="BackgroundImageFix" result="shape"/>
<feColorMatrix in="SourceAlpha" type="matrix" values="0 0 0 0 0 0 0 0 0 0 0 0 0 0 0 0 0 0 127 0" result="hardAlpha"/>
<feOffset dy="4"/>
<feGaussianBlur stdDeviation="7"/>
<feComposite in2="hardAlpha" operator="arithmetic" k2="-1" k3="1"/>
<feColorMatrix type="matrix" values="0 0 0 0 0 0 0 0 0 0 0 0 0 0 0 0 0 0 0.29 0"/>
<feBlend mode="normal" in2="shape" result="effect1_innerShadow_488_243"/>
</filter>
<filter id="filter1_d_488_243" x="188.849" y="192.758" width="112.243" height="112.243" filterUnits="userSpaceOnUse" color-interpolation-filters="sRGB">
<feFlood flood-opacity="0" result="BackgroundImageFix"/>
<feColorMatrix in="SourceAlpha" type="matrix" values="0 0 0 0 0 0 0 0 0 0 0 0 0 0 0 0 0 0 127 0" result="hardAlpha"/>
<feOffset/>
<feGaussianBlur stdDeviation="2"/>
<feComposite in2="hardAlpha" operator="out"/>
<feColorMatrix type="matrix" values="0 0 0 0 0 0 0 0 0 0 0 0 0 0 0 0 0 0 0.25 0"/>
<feBlend mode="normal" in2="BackgroundImageFix" result="effect1_dropShadow_488_243"/>
<feBlend mode="normal" in="SourceGraphic" in2="effect1_dropShadow_488_243" result="shape"/>
</filter>
<linearGradient id="paint0_linear_488_243" x1="248.879" y1="248.879" x2="248.879" y2="0" gradientUnits="userSpaceOnUse">
<stop stop-color="#E8EAF0"/>
<stop offset="1" stop-color="#F5F6FD"/>
</linearGradient>
</defs>
</svg>
